<svg width="24" height="25" viewBox="0 0 24 25" fill="none" xmlns="http://www.w3.org/2000/svg">
<g clip-path="url(#clip0_74_355)">
<path fill-rule="evenodd" clip-rule="evenodd" d="M12.7069 16.2069C12.5193 16.3943 12.265 16.4996 11.9999 16.4996C11.7347 16.4996 11.4804 16.3943 11.2929 16.2069L5.63585 10.5499C5.54034 10.4576 5.46416 10.3473 5.41175 10.2253C5.35934 10.1033 5.33176 9.97204 5.3306 9.83926C5.32945 9.70648 5.35475 9.5748 5.40503 9.4519C5.45531 9.329 5.52957 9.21735 5.62346 9.12346C5.71735 9.02957 5.829 8.95531 5.9519 8.90503C6.0748 8.85475 6.20648 8.82945 6.33926 8.8306C6.47204 8.83176 6.60325 8.85934 6.72526 8.91175C6.84726 8.96416 6.95761 9.04034 7.04985 9.13585L11.9999 14.0859L16.9499 9.13585C17.1385 8.9537 17.3911 8.8529 17.6533 8.85518C17.9155 8.85746 18.1663 8.96263 18.3517 9.14804C18.5371 9.33344 18.6423 9.58426 18.6445 9.84645C18.6468 10.1087 18.546 10.3613 18.3639 10.5499L12.7069 16.2069Z" fill="black"/>
</g>
<defs>
<clipPath id="clip0_74_355">
<rect width="24" height="24" fill="white" transform="translate(0 0.5)"/>
</clipPath>
</defs>
</svg>
