<svg width="18" height="18" viewBox="0 0 18 18" fill="none" xmlns="http://www.w3.org/2000/svg">
<path fill-rule="evenodd" clip-rule="evenodd" d="M8.59716 2.16817C8.62986 2.31226 8.63391 2.46139 8.60893 2.60704C8.58403 2.75268 8.53063 2.89199 8.45188 3.017C8.37313 3.14202 8.27046 3.2503 8.14986 3.33564C8.02926 3.42099 7.89298 3.48174 7.74891 3.51442C7.61038 3.54592 7.47389 3.58242 7.33939 3.62392C7.19821 3.66755 7.04981 3.68295 6.90267 3.66922C6.75553 3.65551 6.61254 3.61294 6.48185 3.54396C6.35116 3.47497 6.23535 3.38093 6.14101 3.26719C6.04666 3.15344 5.97565 3.02223 5.93202 2.88104C5.88839 2.73985 5.87299 2.59146 5.88671 2.44432C5.90043 2.29718 5.943 2.15419 6.01198 2.0235C6.08096 1.89281 6.17501 1.777 6.28876 1.68265C6.40249 1.58831 6.53371 1.5173 6.67489 1.47367C6.86389 1.41517 7.05565 1.36392 7.25014 1.31992C7.39424 1.2872 7.54333 1.28319 7.68898 1.30811C7.83463 1.33303 7.97398 1.3864 8.09901 1.46518C8.22396 1.54394 8.33226 1.64657 8.41761 1.76719C8.50296 1.88782 8.56371 2.02407 8.59641 2.16817M9.40191 2.16817C9.46806 1.87728 9.64708 1.62458 9.89953 1.46565C10.152 1.30672 10.4572 1.25457 10.7482 1.32067C14.2559 2.11492 16.8749 5.24992 16.8749 8.99992C16.8749 13.3492 13.3492 16.8749 8.99991 16.8749C5.25064 16.8749 2.11564 14.2559 1.31989 10.7489C1.25386 10.4579 1.30612 10.1526 1.4652 9.90015C1.62428 9.64762 1.87714 9.46867 2.16814 9.40267C2.45915 9.3366 2.76448 9.38887 3.01695 9.54795C3.26942 9.70702 3.44836 9.95992 3.51439 10.2509C3.73825 11.2308 4.22059 12.1328 4.91123 12.8631C5.60187 13.5934 6.47557 14.1253 7.44145 14.4034C8.40733 14.6816 9.43011 14.6959 10.4034 14.4448C11.3767 14.1937 12.2649 13.6864 12.9756 12.9756C13.6864 12.2649 14.1937 11.3767 14.4448 10.4034C14.6959 9.43012 14.6816 8.40735 14.4034 7.44148C14.1253 6.4756 13.5934 5.60189 12.8631 4.91125C12.1328 4.22062 11.2308 3.73828 10.2509 3.51442C9.95998 3.44825 9.70731 3.26925 9.54838 3.01678C9.38946 2.76433 9.33726 2.45908 9.40341 2.16817M5.23489 3.28567C5.43758 3.50443 5.54511 3.79471 5.53386 4.09271C5.52261 4.39072 5.3935 4.67206 5.17489 4.87492C5.07139 4.97135 4.97133 5.07142 4.87489 5.17492C4.77443 5.28326 4.65361 5.37075 4.51934 5.4324C4.38507 5.49405 4.23997 5.52865 4.09232 5.53422C3.94468 5.53979 3.79738 5.51623 3.65884 5.46487C3.5203 5.41352 3.39324 5.33538 3.28489 5.23492C3.17656 5.13445 3.08906 5.01364 3.02741 4.87936C2.96576 4.74509 2.93116 4.59999 2.92559 4.45234C2.92003 4.3047 2.94358 4.15741 2.99494 4.01887C3.0463 3.88033 3.12443 3.75326 3.22489 3.64492C3.35989 3.49992 3.4999 3.35992 3.64489 3.22492C3.75323 3.12445 3.8803 3.0463 4.01884 2.99494C4.15738 2.94358 4.30468 2.92 4.45232 2.92558C4.59997 2.93115 4.74508 2.96575 4.87935 3.0274C5.01363 3.08906 5.13444 3.17731 5.23489 3.28567ZM8.99991 4.12492C9.29826 4.12492 9.58438 4.24345 9.79536 4.45442C10.0063 4.6654 10.1249 4.95155 10.1249 5.24992V8.53417L12.0449 10.4542C12.1524 10.5579 12.2382 10.682 12.2972 10.8192C12.3562 10.9564 12.3873 11.104 12.3887 11.2534C12.3901 11.4028 12.3616 11.551 12.3052 11.6893C12.2486 11.8275 12.1651 11.9532 12.0596 12.0589C11.954 12.1645 11.8285 12.2481 11.6902 12.3047C11.552 12.3613 11.4039 12.3899 11.2545 12.3887C11.1051 12.3874 10.9575 12.3565 10.8202 12.2976C10.6829 12.2387 10.5587 12.1531 10.4549 12.0457L8.20491 9.79567C8.10028 9.6912 8.01733 9.56715 7.96071 9.43065C7.90408 9.29407 7.87491 9.14775 7.87491 8.99992V5.24992C7.87491 4.95155 7.99341 4.6654 8.20438 4.45442C8.41536 4.24345 8.70156 4.12492 8.99991 4.12492ZM2.87989 5.93242C3.02116 5.9759 3.15248 6.0468 3.26633 6.14106C3.38019 6.23531 3.47436 6.35108 3.54345 6.48175C3.61255 6.61241 3.65521 6.75541 3.66901 6.90258C3.68282 7.04974 3.66748 7.19818 3.62389 7.33942C3.58258 7.47459 3.54606 7.61115 3.51439 7.74892C3.44836 8.03992 3.26942 8.29275 3.01695 8.45182C2.76448 8.61097 2.45915 8.66317 2.16814 8.59717C1.87714 8.5311 1.62428 8.35222 1.4652 8.0997C1.30612 7.84725 1.25386 7.54192 1.31989 7.25092C1.3639 7.05592 1.41514 6.86417 1.47364 6.67567C1.5172 6.53447 1.58816 6.40323 1.68245 6.28945C1.77674 6.17568 1.89252 6.0816 2.02318 6.01258C2.15383 5.94355 2.29681 5.90095 2.44393 5.8872C2.59106 5.87344 2.73946 5.88881 2.88064 5.93242" fill="#777A80"/>
</svg>
