<svg width="16" height="16" viewBox="0 0 16 16" fill="none" xmlns="http://www.w3.org/2000/svg">
<path d="M14.667 1.33301C14.9266 1.33301 15.1626 1.48363 15.2719 1.71908C15.3743 1.93982 15.3479 2.19761 15.2061 2.39225L15.1761 2.43001L10.0004 8.55046V13.9997C10.0004 14.2307 9.88078 14.4453 9.68429 14.5667C9.48774 14.6882 9.24218 14.6994 9.03552 14.596L6.36886 13.2627C6.143 13.1498 6.00037 12.9189 6.00037 12.6663V8.55046L0.824587 2.43001C0.657077 2.23184 0.619676 1.95447 0.728884 1.71908C0.838123 1.48363 1.07415 1.33301 1.3337 1.33301H14.667ZM7.17615 7.87598L7.21196 7.92253C7.29082 8.03449 7.3337 8.16841 7.3337 8.30632V12.2542L8.66704 12.9209V8.30632C8.66704 8.14875 8.72287 7.9963 8.82459 7.87598L13.2302 2.66634H2.77055L7.17615 7.87598Z" fill="#19212C"/>
</svg>
