<svg width="44" height="45" viewBox="0 0 44 45" fill="none" xmlns="http://www.w3.org/2000/svg">
<path d="M43.9998 36.9115C43.9998 40.9616 40.7165 44.2449 36.6664 44.2449C32.6163 44.2449 29.333 40.9616 29.333 36.9115C29.333 32.8614 32.6163 29.5781 36.6664 29.5781C40.7165 29.5781 43.9998 32.8614 43.9998 36.9115Z" fill="#FFD600"/>
<path d="M42.499 36.9114C42.4989 33.6516 39.8632 31.053 36.6665 31.053C33.4697 31.053 30.8338 33.6516 30.8338 36.9114C30.8338 40.1712 33.4697 42.77 36.6665 42.77V44.2449L36.4772 44.2425C32.5145 44.1421 29.333 40.8982 29.333 36.9114C29.3331 32.8613 32.6164 29.5781 36.6665 29.5781L36.8558 29.5805C40.8184 29.681 43.9997 32.9246 43.9997 36.9114C43.9997 40.9615 40.7166 44.2448 36.6665 44.2449V42.77C39.8632 42.77 42.499 40.1712 42.499 36.9114Z" fill="#050F27"/>
<path d="M29.3338 37.1664C29.3338 41.2165 26.0505 44.4997 22.0004 44.4997C17.9503 44.4997 14.667 41.2165 14.667 37.1664C14.667 33.1163 17.9503 29.833 22.0004 29.833C26.0505 29.833 29.3338 33.1163 29.3338 37.1664Z" fill="#FFD600"/>
<path d="M27.833 37.1663C27.8329 33.9065 25.1972 31.3079 22.0005 31.3079C18.8037 31.3079 16.1678 33.9065 16.1677 37.1663C16.1677 40.4261 18.8037 43.0249 22.0005 43.0249V44.4998L21.8112 44.4974C17.8485 44.397 14.667 41.1531 14.667 37.1663C14.6671 33.1162 17.9504 29.833 22.0005 29.833L22.1898 29.8354C26.1523 29.9359 29.3337 33.1795 29.3337 37.1663C29.3337 41.2163 26.0506 44.4997 22.0005 44.4998V43.0249C25.1972 43.0249 27.833 40.4261 27.833 37.1663Z" fill="#050F27"/>
<path d="M14.6668 37.1664C14.6668 41.2165 11.3835 44.4997 7.3334 44.4997C3.28327 44.4997 0 41.2165 0 37.1664C0 33.1163 3.28327 29.833 7.3334 29.833C11.3835 29.833 14.6668 33.1163 14.6668 37.1664Z" fill="#FFD600"/>
<path d="M13.166 37.1663C13.1659 33.9065 10.5302 31.3079 7.33348 31.3079C4.13674 31.3079 1.5008 33.9065 1.50075 37.1663C1.50075 40.4261 4.13671 43.0249 7.33348 43.0249V44.4998L7.14418 44.4974C3.18151 44.397 0 41.1531 0 37.1663C5.80246e-05 33.1162 3.2834 29.833 7.33348 29.833L7.52279 29.8354C11.4853 29.9359 14.6667 33.1795 14.6667 37.1663C14.6667 41.2163 11.3836 44.4997 7.33348 44.4998V43.0249C10.5302 43.0249 13.166 40.4261 13.166 37.1663Z" fill="#050F27"/>
<path d="M43.9998 7.83336C43.9998 11.8835 40.7165 15.1667 36.6664 15.1667C32.6163 15.1667 29.333 11.8835 29.333 7.83336C29.333 3.78326 32.6163 0.5 36.6664 0.5C40.7165 0.5 43.9998 3.78326 43.9998 7.83336Z" fill="#FFD600"/>
<path d="M42.499 7.83326C42.4989 4.57348 39.8632 1.97491 36.6665 1.97486C33.4697 1.97486 30.8338 4.57345 30.8338 7.83326C30.8338 11.0931 33.4697 13.6919 36.6665 13.6919V15.1668L36.4772 15.1644C32.5145 15.064 29.333 11.8201 29.333 7.83326C29.3331 3.7832 32.6164 0.5 36.6665 0.5L36.8558 0.5024C40.8184 0.602852 43.9997 3.84652 43.9997 7.83326C43.9997 11.8833 40.7166 15.1667 36.6665 15.1668V13.6919C39.8632 13.6918 42.499 11.0931 42.499 7.83326Z" fill="#050F27"/>
<path d="M29.2108 22.1305C29.2108 26.3302 25.8063 29.7347 21.6066 29.7347C17.4069 29.7347 14.0024 26.3302 14.0024 22.1305C14.0024 17.9309 17.4069 14.5264 21.6066 14.5264C25.8063 14.5264 29.2108 17.9309 29.2108 22.1305Z" fill="#FFD600"/>
<path d="M27.7099 22.1304C27.7099 18.7211 24.9529 16.0012 21.6066 16.0012C18.2603 16.0013 15.5032 18.7211 15.5032 22.1304C15.5032 25.5398 18.2603 28.2598 21.6066 28.2598V29.7347L21.4104 29.7323C17.3014 29.6282 14.0024 26.2645 14.0024 22.1304C14.0025 17.9308 17.407 14.5264 21.6066 14.5264C25.8062 14.5264 29.2106 17.9308 29.2107 22.1304C29.2107 26.3301 25.8062 29.7347 21.6066 29.7347V28.2598C24.9529 28.2598 27.7099 25.5398 27.7099 22.1304Z" fill="#050F27"/>
<path d="M18.7591 11.0543C18.7591 15.254 15.3546 18.6585 11.155 18.6585C6.95529 18.6585 3.55078 15.254 3.55078 11.0543C3.55078 6.85469 6.95529 3.4502 11.155 3.4502C15.3546 3.4502 18.7591 6.85469 18.7591 11.0543Z" fill="#FFD600"/>
<path d="M17.2583 11.0542C17.2582 7.64488 14.5012 4.92506 11.1549 4.92506C7.80864 4.92508 5.05159 7.6449 5.05153 11.0542C5.05153 14.4636 7.8086 17.1836 11.1549 17.1836V18.6585L10.9588 18.6561C6.84977 18.552 3.55078 15.1883 3.55078 11.0542C3.55084 6.85464 6.9553 3.45022 11.1549 3.4502C15.3545 3.4502 18.759 6.85463 18.759 11.0542C18.759 15.2539 15.3546 18.6585 11.1549 18.6585V17.1836C14.5012 17.1836 17.2583 14.4636 17.2583 11.0542Z" fill="#050F27"/>
<path d="M43.9998 22.3729C43.9998 26.3527 40.717 29.5789 36.6674 29.5789C32.6178 29.5789 29.335 26.3527 29.335 22.3729C29.335 18.3932 32.6178 15.167 36.6674 15.167C40.717 15.167 43.9998 18.3932 43.9998 22.3729Z" fill="#FFD600"/>
<path d="M42.499 22.373C42.499 19.2079 39.8882 16.6419 36.6675 16.6419C33.4467 16.6419 30.8357 19.2078 30.8357 22.373C30.8358 25.5382 33.4468 28.104 36.6675 28.104V29.5788L36.4782 29.5764C32.5789 29.4793 29.4361 26.3909 29.3374 22.5588L29.335 22.373C29.335 18.3933 32.6179 15.167 36.6675 15.167L36.8565 15.1694C40.8187 15.268 43.9997 18.4554 43.9997 22.373L43.9973 22.5588C43.897 26.4526 40.6538 29.5788 36.6675 29.5788V28.104C39.8881 28.1039 42.4989 25.5381 42.499 22.373Z" fill="#050F27"/>
</svg>
