<svg width="32" height="25" viewBox="0 0 32 25" fill="none" xmlns="http://www.w3.org/2000/svg">
<path d="M30.222 0L30.3134 0.00264031C31.2528 0.0501276 32 0.826751 32 1.77798C32 2.72922 31.2528 3.50584 30.3134 3.55333L30.222 3.55597H1.77798C0.796154 3.55597 0 2.75981 0 1.77798C0 0.796154 0.796154 0 1.77798 0H30.222Z" fill="#262729"/>
<path d="M30.222 10.667L30.3134 10.6696C31.2528 10.7171 32 11.4937 32 12.445C32 13.3962 31.2528 14.1728 30.3134 14.2203L30.222 14.223H1.77798C0.796154 14.223 0 13.4268 0 12.445C0 11.4631 0.796154 10.667 1.77798 10.667H30.222Z" fill="#262729"/>
<path d="M30.222 21.333L30.3134 21.3356C31.2528 21.3831 32 22.1598 32 23.111C32 24.0622 31.2528 24.8388 30.3134 24.8863L30.222 24.889H1.77798C0.796154 24.889 0 24.0928 0 23.111C0 22.1292 0.796154 21.333 1.77798 21.333H30.222Z" fill="#262729"/>
</svg>
