<svg width="24" height="24" viewBox="0 0 24 24" fill="none" xmlns="http://www.w3.org/2000/svg">
<mask id="mask0_1646_14707" style="mask-type:luminance" maskUnits="userSpaceOnUse" x="0" y="0" width="24" height="24">
<path d="M24 0H0V24H24V0Z" fill="white"/>
</mask>
<g mask="url(#mask0_1646_14707)">
<path d="M9.40868 0.283725L9.62498 0.500025L8.87498 1.25003L8.23196 0.60705C7.06624 0.992437 5.98031 1.55123 5.00351 2.2536L5.24996 2.50001L4.49996 3.25001L4.16501 2.91506C3.79515 3.23434 3.4428 3.57334 3.11441 3.93491L3.67946 4.5L2.92946 5.25L2.43491 4.75537C2.15505 5.12423 1.89709 5.51021 1.66069 5.91071L2.25 6.49999L1.5 7.24999L1.14105 6.89104C0.410325 8.44136 0 10.1725 0 12H12V0C11.1099 0 10.2435 0.0998625 9.40868 0.283725Z" fill="#191977"/>
<path d="M18.6323 1.99999C16.7321 0.73725 14.4525 0 12 0V1.99999H18.6323Z" fill="white"/>
<path d="M12 4H20.942C20.2612 3.2396 19.4852 2.56685 18.6323 2H12V4Z" fill="#F0263C"/>
<path d="M12 5.99999H22.3906C21.9759 5.2834 21.4908 4.61298 20.942 4H12L12 5.99999Z" fill="white"/>
<path d="M12 7.99999H23.3145C23.0673 7.30106 22.7568 6.63266 22.3906 6H12V7.99999Z" fill="#F0263C"/>
<path d="M12 9.99999H23.8309C23.7154 9.31167 23.5419 8.64324 23.3145 8H12L12 9.99999Z" fill="white"/>
<path d="M12 12H24C24 11.3182 23.9402 10.6507 23.8309 10H12V12Z" fill="#F0263C"/>
<path d="M12 12H0C0 12.6818 0.0598125 13.3493 0.16905 14H23.8309C23.9401 13.3493 24 12.6817 24 12H12Z" fill="white"/>
<path d="M0.686411 16H23.3153C23.5428 15.3567 23.7162 14.6883 23.8318 14H0.169922C0.285459 14.6883 0.459011 15.3567 0.686411 16Z" fill="#F0263C"/>
<path d="M1.6094 18H22.3907C22.7568 17.3673 23.0674 16.6989 23.3145 16H0.685547C0.932672 16.6989 1.24325 17.3673 1.6094 18Z" fill="white"/>
<path d="M3.058 20H20.9419C21.4907 19.387 21.9759 18.7166 22.3906 18H1.60938C2.02409 18.7166 2.50919 19.387 3.058 20Z" fill="#F0263C"/>
<path d="M5.36835 22H18.6328C19.4858 21.4331 20.2618 20.7604 20.9425 20H3.05859C3.73933 20.7604 4.51537 21.4331 5.36835 22Z" fill="white"/>
<path d="M11.9994 24C14.4519 24 16.7315 23.2628 18.6317 22H5.36719C7.26735 23.2628 9.54694 24 11.9994 24Z" fill="#F0263C"/>
<path d="M2.92969 7.75L2.17969 8.5L2.92969 9.25L3.67969 8.5L2.92969 7.75Z" fill="white"/>
<path d="M5.875 7.75L5.125 8.5L5.875 9.25L6.625 8.5L5.875 7.75Z" fill="white"/>
<path d="M8.875 7.75L8.125 8.5L8.875 9.25L9.625 8.5L8.875 7.75Z" fill="white"/>
<path d="M5.875 3.75L5.125 4.5L5.875 5.25L6.625 4.5L5.875 3.75Z" fill="white"/>
<path d="M8.875 3.75L8.125 4.5L8.875 5.25L9.625 4.5L8.875 3.75Z" fill="white"/>
<path d="M1.5 9.75L0.75 10.5L1.5 11.25L2.25 10.5L1.5 9.75Z" fill="white"/>
<path d="M4.5 9.75L3.75 10.5L4.5 11.25L5.25 10.5L4.5 9.75Z" fill="white"/>
<path d="M7.44531 9.75L6.69531 10.5L7.44531 11.25L8.19531 10.5L7.44531 9.75Z" fill="white"/>
<path d="M10.4453 9.75L9.69531 10.5L10.4453 11.25L11.1953 10.5L10.4453 9.75Z" fill="white"/>
<path d="M4.5 5.75L3.75 6.5L4.5 7.25L5.25 6.5L4.5 5.75Z" fill="white"/>
<path d="M7.44531 5.75L6.69531 6.5L7.44531 7.25L8.19531 6.5L7.44531 5.75Z" fill="white"/>
<path d="M10.4453 5.75L9.69531 6.5L10.4453 7.25L11.1953 6.5L10.4453 5.75Z" fill="white"/>
<path d="M7.44531 1.75L6.69531 2.5L7.44531 3.25L8.19531 2.5L7.44531 1.75Z" fill="white"/>
<path d="M10.4453 1.75L9.69531 2.5L10.4453 3.25L11.1953 2.5L10.4453 1.75Z" fill="white"/>
<path d="M3.6801 4.50063L3.11505 3.93555C2.87632 4.19835 2.65038 4.47273 2.43555 4.75601L2.9301 5.25063L3.6801 4.50063Z" fill="white"/>
<path d="M2.24958 6.49943L1.66026 5.91016C1.47269 6.22801 1.29888 6.55471 1.14062 6.89048L1.49958 7.24943L2.24958 6.49943Z" fill="white"/>
<path d="M5.25097 2.50032L5.00452 2.25391C4.71502 2.46211 4.43542 2.68283 4.16602 2.91541L4.50097 3.25036L5.25097 2.50032Z" fill="white"/>
<path d="M9.62543 0.499503L9.40913 0.283203C9.00897 0.371328 8.61653 0.479516 8.23242 0.606491L8.87543 1.24947L9.62543 0.499503Z" fill="white"/>
</g>
</svg>
