<svg width="16" height="16" viewBox="0 0 16 16" fill="none" xmlns="http://www.w3.org/2000/svg">
<g clip-path="url(#clip0_1126_9065)">
<path d="M14.0003 8.00033C14.0003 4.68662 11.314 2.00033 8.00033 2.00033C4.68662 2.00033 2.00033 4.68662 2.00033 8.00033C2.00033 11.314 4.68662 14.0003 8.00033 14.0003C11.314 14.0003 14.0003 11.314 14.0003 8.00033ZM7.33366 4.00033C7.33366 3.63214 7.63214 3.33366 8.00033 3.33366C8.36852 3.33366 8.66699 3.63214 8.66699 4.00033V7.58822L10.9652 8.7373L11.0244 8.77083C11.3099 8.95167 11.4177 9.32304 11.2633 9.63184C11.109 9.94058 10.7473 10.0772 10.4313 9.95736L10.3688 9.93001L7.70215 8.59668C7.47629 8.48375 7.33366 8.25284 7.33366 8.00033V4.00033ZM15.3337 8.00033C15.3337 12.0504 12.0504 15.3337 8.00033 15.3337C3.95024 15.3337 0.666992 12.0504 0.666992 8.00033C0.666992 3.95024 3.95024 0.666992 8.00033 0.666992C12.0504 0.666992 15.3337 3.95024 15.3337 8.00033Z" fill="#777A80"/>
</g>
<defs>
<clipPath id="clip0_1126_9065">
<rect width="16" height="16" fill="white"/>
</clipPath>
</defs>
</svg>
