<svg width="25" height="25" viewBox="0 0 25 25" fill="none" xmlns="http://www.w3.org/2000/svg">
<path d="M3.33344 6.93372C3.33344 4.65208 5.18046 2.78027 7.4564 2.78027H16.5712C18.8475 2.78027 20.6926 4.65158 20.7034 6.93093V20.355C20.7034 21.3208 20.3576 22.125 19.6738 22.5308C19.0325 22.9113 18.2315 22.8599 17.4438 22.4647L17.2869 22.381L12.6727 19.7996L12.669 19.7968C12.517 19.7098 12.2835 19.6526 12.0217 19.6526C11.7604 19.6527 11.5228 19.7096 11.3642 19.7987L6.74908 22.381L6.74815 22.3819C5.91032 22.8467 5.04566 22.9291 4.36302 22.5242C3.68002 22.119 3.33348 21.3174 3.33344 20.355V6.93372ZM4.27899 20.355C4.27904 21.1069 4.54288 21.5247 4.84319 21.7029C5.14391 21.8811 5.63612 21.9113 6.292 21.5475L10.9044 18.9671L11.0318 18.902C11.3377 18.7612 11.6898 18.7001 12.0217 18.7001C12.4004 18.7001 12.8059 18.7798 13.1362 18.9689L17.7467 21.5484L17.985 21.6684C18.5228 21.9072 18.9318 21.8655 19.1937 21.7103C19.4932 21.5326 19.7578 21.1129 19.7579 20.355V6.93558L19.7533 6.77186C19.6606 5.08757 18.2683 3.73282 16.5712 3.73282H7.4564C5.70427 3.73282 4.27899 5.17655 4.27899 6.93372V20.355Z" fill="#777A80"/>
</svg>
