<svg width="58" height="8" viewBox="0 0 58 8" fill="none" xmlns="http://www.w3.org/2000/svg">
<path d="M8.02069 3.99437C8.02069 1.81495 9.8598 0.0524157 12.1593 0.0524157C14.4749 0.0524157 16.3145 1.81593 16.3145 3.99437C16.3145 6.15761 14.4749 7.95248 12.1593 7.95248C9.8598 7.95248 8.02069 6.15565 8.02069 3.99437ZM14.3273 3.99437C14.3273 2.9049 13.3583 1.9433 12.1593 1.9433C10.9769 1.9433 10.0079 2.9049 10.0079 3.99437C10.0079 5.09999 10.9769 6.0616 12.1593 6.0616C13.3603 6.0616 14.3273 5.09999 14.3273 3.99437ZM49.7554 4.05854C49.7554 1.67093 51.7426 0.0524157 53.5496 0.0524157C54.7812 0.0524157 55.4876 0.420795 55.9636 1.1262L56.1529 0.195457H58V7.80797H56.1529L55.9144 7.02419C55.3726 7.60125 54.6988 7.95493 53.5496 7.95493C51.7758 7.95248 49.7554 6.42998 49.7554 4.05854ZM56.062 4.04237C56.0575 2.88987 55.0844 1.94403 53.903 1.94403C52.7187 1.94403 51.7441 2.89491 51.7441 4.05046V4.05854C51.7441 5.11616 52.7131 6.0616 53.896 6.0616C55.0935 6.0616 56.062 5.11616 56.062 4.04237ZM47.4855 1.07771V0.195946H45.4656V7.80797H47.4855V3.70633C47.4855 2.47235 48.1101 1.83161 49.1926 1.83161C49.2644 1.83161 49.3326 1.83651 49.3994 1.84288L49.774 0.00538852C48.7211 0.010777 47.958 0.362991 47.4855 1.07771ZM27.188 1.07819V0.196436L25.1681 0.200845L25.1852 7.81189L27.2051 7.80748L27.194 3.70633C27.191 2.47284 27.8141 1.83063 28.8976 1.82818C28.9667 1.82838 29.0357 1.83215 29.1044 1.83945L29.477 0C28.4226 0.00832772 27.6585 0.362011 27.188 1.07819ZM17.0144 4.85947V0.196436H19.0338V4.61944C19.0338 5.59672 19.5921 6.17378 20.5611 6.17378C21.6451 6.17378 22.2681 5.53255 22.2681 4.29857V0.196436H24.2885V7.80797H22.2697V6.92621C21.7937 7.6473 21.0215 8 19.9541 8C18.1476 8.00049 17.0144 6.71851 17.0144 4.85947ZM36.6828 4.00318C36.6873 1.87178 38.2508 0.0480069 40.7305 0.0524157C43.0301 0.0568244 44.6523 1.85414 44.6467 3.97134C44.6473 4.18066 44.6302 4.38969 44.5965 4.59641L38.6514 4.58563C38.8794 5.49923 39.6501 6.15761 40.8164 6.16006C41.5223 6.16006 42.2785 5.90631 42.7394 5.33023L44.1171 6.40794C43.4086 7.38424 42.159 7.95885 40.8295 7.9564C38.4822 7.94856 36.6788 6.2306 36.6828 4.00318ZM42.6133 3.21254C42.4999 2.44345 41.68 1.84875 40.711 1.84728C39.7746 1.84728 39.0185 2.38908 38.7212 3.20568L42.6133 3.21254ZM29.489 6.1488L31.2845 5.23177C31.5812 5.85929 32.1746 6.22914 33.0156 6.22914C33.7903 6.22914 34.0871 5.98812 34.0871 5.65011C34.0871 4.42545 29.834 5.1676 29.834 2.36801C29.834 0.823954 31.2187 0.00391893 32.9328 0.00391893C34.2352 0.00391893 35.3889 0.566775 36.0155 1.61215L34.2362 2.53065C33.9726 2.0158 33.478 1.72629 32.8514 1.72629C32.2419 1.72629 31.9447 1.93546 31.9447 2.28914C31.9447 3.47952 36.1978 2.72365 36.1978 5.57125C36.1978 7.05113 34.9617 7.9515 32.9669 7.9515C31.2689 7.95003 30.082 7.40334 29.489 6.1488ZM0 3.99437C0 1.79928 1.83911 0.0362501 4.13863 0.0362501C5.54178 0.0266487 6.85898 0.709179 7.6366 1.84875L5.91247 2.82457C5.71287 2.54652 5.44732 2.31969 5.13844 2.16342C4.82957 2.00715 4.48655 1.92609 4.13863 1.92713C2.95623 1.92713 1.98722 2.88874 1.98722 3.99437C1.98722 5.09999 2.95623 6.0616 4.13863 6.0616C4.50294 6.06372 4.86175 5.97479 5.18087 5.80329C5.49999 5.63179 5.76879 5.38343 5.96167 5.08187L7.66873 6.07532C6.9002 7.24879 5.56493 7.95792 4.13762 7.95052C1.83911 7.95248 0 6.15565 0 3.99437Z" fill="#364CE5"/>
</svg>
