<svg width="143" height="24" viewBox="0 0 143 24" fill="none" xmlns="http://www.w3.org/2000/svg">
<path d="M15.6406 12.1243L1.09138 6.48037C0.900847 6.40646 0.90043 6.13701 1.09073 6.06251L15.6393 0.3668C15.7444 0.32565 15.8612 0.32565 15.9663 0.3668L30.5148 6.06251C30.7051 6.13701 30.7047 6.40646 30.5142 6.48037L15.965 12.1243C15.8606 12.1648 15.7449 12.1648 15.6406 12.1243Z" fill="#FFD600"/>
<path d="M15.5157 0.0472518C15.7153 -0.0202485 15.9329 -0.0154282 16.1299 0.0617044L30.6786 5.75745L30.7049 5.7684C31.2406 6.00234 31.2395 6.76797 30.703 7.00026L30.6766 7.01099L16.1274 12.655C15.9318 12.7308 15.7161 12.7356 15.518 12.6692L15.4786 12.655L0.92939 7.01099C0.357833 6.78925 0.356566 5.98097 0.927419 5.75745L15.4761 0.0617044L15.5157 0.0472518ZM1.79019 6.38285L15.803 11.8188L29.8157 6.38285L15.803 0.896999L1.79019 6.38285Z" fill="#FFD600"/>
<path d="M28.0825 18.4961L18.5444 21.958L18.561 24L15.8022 22.9678L13.0444 24L13.0601 21.959L3.52393 18.4961L3.51611 8.95508L13.6704 12.8096C14.4342 13.0995 15.1464 13.5044 15.7837 14.0068C16.4277 13.4969 17.1494 13.0883 17.9233 12.7959L28.0894 8.95508L28.0825 18.4961ZM15.8032 16.6406C14.8339 16.6406 14.0474 17.4262 14.0474 18.3955C14.0474 19.3649 14.8338 20.1504 15.8032 20.1504C16.7725 20.1503 17.5581 19.3648 17.5581 18.3955C17.5581 17.4262 16.7725 16.6408 15.8032 16.6406Z" fill="#EBC500"/>
<path d="M134.827 16.8547H134.97C135.399 17.0454 135.882 17.2004 136.418 17.3196C136.966 17.4388 137.509 17.4984 138.045 17.4984C138.212 17.4984 138.432 17.4924 138.707 17.4805C138.993 17.4567 139.279 17.403 139.565 17.3196C139.863 17.2361 140.113 17.0931 140.316 16.8905C140.518 16.6759 140.62 16.3779 140.62 15.9965C140.62 15.5673 140.447 15.2634 140.101 15.0846C139.756 14.9058 139.279 14.7687 138.671 14.6734L137.813 14.5303C136.799 14.3634 136.048 14.0774 135.56 13.6721C135.071 13.2549 134.827 12.6708 134.827 11.9198C134.827 11.3954 134.964 10.9066 135.238 10.4537C135.524 9.98881 135.977 9.61929 136.597 9.34513C137.229 9.05906 138.069 8.91602 139.118 8.91602C139.583 8.91602 140.03 8.95774 140.459 9.04118C140.9 9.1127 141.263 9.20209 141.55 9.30937V10.7755H141.406C141.013 10.6325 140.638 10.5252 140.28 10.4537C139.922 10.3822 139.511 10.3464 139.046 10.3464C138.224 10.3464 137.574 10.4656 137.097 10.704C136.633 10.9305 136.4 11.3179 136.4 11.8662C136.4 12.2834 136.567 12.5814 136.901 12.7602C137.246 12.939 137.723 13.0761 138.331 13.1714L139.189 13.3145C139.738 13.3979 140.238 13.5469 140.691 13.7615C141.144 13.976 141.508 14.2681 141.782 14.6376C142.056 14.9952 142.193 15.4481 142.193 15.9965C142.193 16.962 141.848 17.6951 141.156 18.1957C140.465 18.6844 139.404 18.9288 137.974 18.9288C137.366 18.9288 136.793 18.8811 136.257 18.7857C135.733 18.6904 135.256 18.5712 134.827 18.4281V16.8547Z" fill="#262729"/>
<path d="M129.522 18.928C128.616 18.928 127.824 18.8207 127.144 18.6062C126.477 18.3797 125.916 18.0519 125.463 17.6228C125.022 17.1937 124.695 16.6692 124.48 16.0494C124.265 15.4176 124.158 14.6964 124.158 13.8859C124.158 12.8727 124.343 11.9906 124.712 11.2397C125.094 10.4768 125.618 9.88675 126.286 9.46955C126.965 9.05235 127.758 8.84375 128.664 8.84375C129.713 8.84375 130.559 9.05831 131.203 9.48743C131.847 9.91655 132.305 10.5185 132.58 11.2933C132.866 12.0681 132.991 12.9681 132.955 13.9932L132.937 14.4938H125.303V13.1349H131.239V12.9919C131.239 12.0979 131.024 11.4244 130.595 10.9715C130.166 10.5066 129.522 10.2741 128.664 10.2741C128.163 10.2741 127.698 10.3814 127.269 10.596C126.84 10.8105 126.495 11.1741 126.232 11.6867C125.97 12.1992 125.839 12.8965 125.839 13.7786V13.8859C125.839 14.8037 126 15.5249 126.322 16.0494C126.644 16.5738 127.085 16.9493 127.645 17.1758C128.217 17.3904 128.867 17.4976 129.594 17.4976C130.202 17.4976 130.72 17.438 131.149 17.3188C131.578 17.1996 131.918 17.0685 132.168 16.9255H132.311V18.3916C132.025 18.5347 131.65 18.6598 131.185 18.7671C130.72 18.8744 130.166 18.928 129.522 18.928Z" fill="#262729"/>
<path d="M115.218 16.8547H115.361C115.79 17.0454 116.273 17.2004 116.809 17.3196C117.357 17.4388 117.9 17.4984 118.436 17.4984C118.603 17.4984 118.824 17.4924 119.098 17.4805C119.384 17.4567 119.67 17.403 119.956 17.3196C120.254 17.2361 120.504 17.0931 120.707 16.8905C120.91 16.6759 121.011 16.3779 121.011 15.9965C121.011 15.5673 120.838 15.2634 120.492 15.0846C120.147 14.9058 119.67 14.7687 119.062 14.6734L118.204 14.5303C117.191 14.3634 116.44 14.0774 115.951 13.6721C115.462 13.2549 115.218 12.6708 115.218 11.9198C115.218 11.3954 115.355 10.9066 115.629 10.4537C115.915 9.98881 116.368 9.61929 116.988 9.34513C117.62 9.05906 118.46 8.91602 119.509 8.91602C119.974 8.91602 120.421 8.95774 120.85 9.04118C121.291 9.1127 121.655 9.20209 121.941 9.30937V10.7755H121.798C121.404 10.6325 121.029 10.5252 120.671 10.4537C120.314 10.3822 119.902 10.3464 119.437 10.3464C118.615 10.3464 117.965 10.4656 117.489 10.704C117.024 10.9305 116.791 11.3179 116.791 11.8662C116.791 12.2834 116.958 12.5814 117.292 12.7602C117.638 12.939 118.114 13.0761 118.722 13.1714L119.58 13.3145C120.129 13.3979 120.629 13.5469 121.082 13.7615C121.535 13.976 121.899 14.2681 122.173 14.6376C122.447 14.9952 122.584 15.4481 122.584 15.9965C122.584 16.962 122.239 17.6951 121.547 18.1957C120.856 18.6844 119.795 18.9288 118.365 18.9288C117.757 18.9288 117.185 18.8811 116.648 18.7857C116.124 18.6904 115.647 18.5712 115.218 18.4281V16.8547Z" fill="#262729"/>
<path d="M109.143 18.7855V12.6348C109.143 12.3964 109.137 12.0865 109.125 11.7051C109.125 11.3236 109.113 10.9481 109.089 10.5786C109.077 10.2091 109.047 9.91706 109 9.7025L109.035 9.55946C109.345 9.44026 109.727 9.33894 110.18 9.2555C110.644 9.17206 111.103 9.1065 111.556 9.05882C112.021 9.01114 112.409 8.9873 112.719 8.9873C113.005 8.9873 113.237 8.99326 113.416 9.00518C113.595 9.0171 113.744 9.03498 113.863 9.05882V10.4892H113.72C113.565 10.4654 113.38 10.4475 113.166 10.4356C112.951 10.4237 112.754 10.4177 112.575 10.4177C112.206 10.4177 111.819 10.4475 111.413 10.5071C111.008 10.5667 110.656 10.6263 110.358 10.6859L110.68 10.2389C110.752 10.6323 110.788 11.121 110.788 11.7051V18.7855H109.143Z" fill="#262729"/>
<path d="M102.065 18.9998C101.445 18.9998 100.861 18.9343 100.313 18.8032C99.7764 18.684 99.3056 18.4694 98.9003 18.1595C98.5069 17.8376 98.197 17.4026 97.9705 16.8542C97.7441 16.3059 97.6308 15.6146 97.6308 14.7802V12.1339C97.6308 11.8955 97.6249 11.5856 97.613 11.2042C97.613 10.8227 97.601 10.4473 97.5772 10.0777C97.5653 9.70823 97.5355 9.41619 97.4878 9.20163L97.5236 9.05859H99.2758V14.6371C99.2758 15.4238 99.389 16.0318 99.6155 16.4609C99.8539 16.8781 100.194 17.1701 100.635 17.337C101.088 17.492 101.63 17.5694 102.262 17.5694C102.643 17.5694 103.031 17.5396 103.424 17.48C103.829 17.4085 104.181 17.331 104.479 17.2476L104.175 17.6767C104.127 17.5098 104.097 17.3012 104.085 17.0509C104.074 16.8006 104.068 16.5443 104.068 16.2821V12.1339C104.068 11.8955 104.062 11.5856 104.05 11.2042C104.05 10.8227 104.038 10.4473 104.014 10.0777C104.002 9.70823 103.972 9.41619 103.925 9.20163L103.96 9.05859H105.713V15.2808C105.713 15.5192 105.713 15.8291 105.713 16.2106C105.724 16.592 105.736 16.9675 105.748 17.337C105.772 17.7065 105.808 17.9986 105.856 18.2131L105.82 18.3562C105.51 18.4754 105.117 18.5826 104.64 18.678C104.175 18.7734 103.704 18.8508 103.227 18.9104C102.762 18.97 102.375 18.9998 102.065 18.9998Z" fill="#262729"/>
<path d="M86.2681 13.8859C86.2681 12.825 86.4528 11.9191 86.8223 11.1681C87.2038 10.4172 87.7283 9.84503 88.3958 9.45167C89.0752 9.04639 89.856 8.84375 90.738 8.84375C91.6201 8.84375 92.3949 9.04639 93.0624 9.45167C93.7419 9.84503 94.2664 10.4172 94.6359 11.1681C95.0173 11.9191 95.208 12.825 95.208 13.8859C95.208 14.9468 95.0173 15.8527 94.6359 16.6036C94.2664 17.3546 93.7419 17.9327 93.0624 18.338C92.3949 18.7313 91.6201 18.928 90.738 18.928C89.8321 18.928 89.0454 18.7313 88.3779 18.338C87.7104 17.9327 87.1919 17.3546 86.8223 16.6036C86.4528 15.8527 86.2681 14.9468 86.2681 13.8859ZM87.9488 13.8859C87.9488 15.0779 88.1872 15.9778 88.664 16.5858C89.1527 17.1937 89.8441 17.4976 90.738 17.4976C91.632 17.4976 92.3174 17.1937 92.7942 16.5858C93.283 15.9778 93.5273 15.0779 93.5273 13.8859C93.5273 12.682 93.283 11.782 92.7942 11.186C92.3174 10.5781 91.632 10.2741 90.738 10.2741C89.8441 10.2741 89.1527 10.5781 88.664 11.186C88.1872 11.782 87.9488 12.682 87.9488 13.8859Z" fill="#262729"/>
<path d="M77.188 13.8859C77.188 12.825 77.3966 11.9191 77.8138 11.1681C78.2429 10.4172 78.8449 9.84503 79.6197 9.45167C80.4064 9.04639 81.3361 8.84375 82.4089 8.84375C83.291 8.84375 84.03 8.97487 84.626 9.23711V10.7033H84.483C84.2327 10.5721 83.9287 10.4708 83.5711 10.3993C83.2254 10.3159 82.838 10.2741 82.4089 10.2741C81.3361 10.2741 80.4779 10.5781 79.8342 11.186C79.1905 11.782 78.8687 12.682 78.8687 13.8859C78.8687 15.0779 79.1905 15.9778 79.8342 16.5858C80.4779 17.1937 81.3361 17.4976 82.4089 17.4976C82.838 17.4976 83.2254 17.4559 83.5711 17.3725C83.9287 17.289 84.2327 17.1877 84.483 17.0685H84.626V18.5347C84.03 18.7969 83.291 18.928 82.4089 18.928C81.3123 18.928 80.3706 18.7313 79.5839 18.338C78.8091 17.9327 78.2131 17.3546 77.7959 16.6036C77.3906 15.8527 77.188 14.9468 77.188 13.8859Z" fill="#262729"/>
<path d="M71.7881 18.9825C70.9179 18.9825 70.1133 18.8871 69.3743 18.6964C68.6472 18.5057 68.0214 18.2137 67.4969 17.8203C66.9843 17.415 66.585 16.8846 66.2989 16.229C66.0248 15.5734 65.8877 14.7867 65.8877 13.8688C65.8877 12.796 66.0903 11.8782 66.4956 11.1153C66.9009 10.3405 67.479 9.7505 68.23 9.34522C68.9809 8.93994 69.869 8.7373 70.8941 8.7373C72.0026 8.7373 72.9085 8.96974 73.6118 9.43462C74.3151 9.8995 74.8217 10.5372 75.1316 11.3478C75.4535 12.1583 75.5846 13.0762 75.525 14.1013L75.5071 14.745H67.8187V12.8854H72.5033V12.796C72.5033 12.2 72.3662 11.7411 72.092 11.4193C71.8298 11.0855 71.4126 10.9187 70.8404 10.9187C70.4709 10.9187 70.1491 11.0021 69.8749 11.169C69.6127 11.3359 69.4041 11.616 69.2491 12.0093C69.1061 12.3908 69.0346 12.9152 69.0346 13.5828V14.1549C69.0346 14.7867 69.1597 15.2814 69.41 15.639C69.6723 15.9846 70.0299 16.235 70.4828 16.3899C70.9358 16.533 71.4662 16.6045 72.0741 16.6045C72.6225 16.6045 73.1231 16.5508 73.5761 16.4436C74.0409 16.3363 74.3985 16.2111 74.6489 16.0681H74.8277V18.5176C74.4701 18.6607 74.0409 18.7739 73.5403 18.8573C73.0516 18.9408 72.4675 18.9825 71.7881 18.9825Z" fill="#262729"/>
<path d="M60.561 18.9825C59.6909 18.9825 58.8863 18.8871 58.1472 18.6964C57.4201 18.5057 56.7943 18.2137 56.2698 17.8203C55.7573 17.415 55.358 16.8846 55.0719 16.229C54.7977 15.5734 54.6606 14.7867 54.6606 13.8688C54.6606 12.796 54.8633 11.8782 55.2686 11.1153C55.6738 10.3405 56.252 9.7505 57.0029 9.34522C57.7539 8.93994 58.6419 8.7373 59.667 8.7373C60.7756 8.7373 61.6815 8.96974 62.3848 9.43462C63.088 9.8995 63.5946 10.5372 63.9046 11.3478C64.2264 12.1583 64.3575 13.0762 64.2979 14.1013L64.28 14.745H56.5917V12.8854H61.2762V12.796C61.2762 12.2 61.1391 11.7411 60.865 11.4193C60.6027 11.0855 60.1855 10.9187 59.6134 10.9187C59.2439 10.9187 58.922 11.0021 58.6479 11.169C58.3856 11.3359 58.177 11.616 58.0221 12.0093C57.879 12.3908 57.8075 12.9152 57.8075 13.5828V14.1549C57.8075 14.7867 57.9327 15.2814 58.183 15.639C58.4452 15.9846 58.8028 16.235 59.2558 16.3899C59.7087 16.533 60.2392 16.6045 60.8471 16.6045C61.3954 16.6045 61.8961 16.5508 62.349 16.4436C62.8139 16.3363 63.1715 16.2111 63.4218 16.0681H63.6006V18.5176C63.243 18.6607 62.8139 18.7739 62.3133 18.8573C61.8245 18.9408 61.2405 18.9825 60.561 18.9825Z" fill="#262729"/>
<path d="M47.6544 18.7849V12.4912C47.6544 12.2528 47.6484 11.9488 47.6365 11.5793C47.6365 11.1979 47.6186 10.8284 47.5829 10.4708C47.559 10.1012 47.5233 9.80919 47.4756 9.59464L47.5292 9.4516C47.8749 9.3324 48.2623 9.22512 48.6914 9.12976C49.1325 9.0344 49.6152 8.95692 50.1397 8.89732C50.6761 8.8258 51.2602 8.79004 51.8919 8.79004C52.0707 8.79004 52.3091 8.796 52.6071 8.80792C52.917 8.81984 53.2448 8.8556 53.5905 8.9152V11.3826H53.3938C53.1912 11.3349 52.9707 11.2992 52.7323 11.2753C52.5058 11.2396 52.2793 11.2217 52.0528 11.2217C51.6595 11.2217 51.29 11.2575 50.9443 11.329C50.5986 11.3886 50.3066 11.472 50.0682 11.5793L50.4973 10.882C50.6999 11.1681 50.8013 11.776 50.8013 12.7057V18.7849H47.6544Z" fill="#262729"/>
<path d="M40.7151 18.7854V9.16602C40.7151 8.18859 40.8999 7.39591 41.2694 6.78799C41.6509 6.16815 42.1813 5.7152 42.8607 5.42912C43.5521 5.14304 44.3567 5 45.2745 5C45.6083 5 45.9063 5.01788 46.1685 5.05364C46.4308 5.0894 46.6513 5.14304 46.8301 5.21456V7.53895H46.6334C46.5023 7.47935 46.3473 7.43167 46.1685 7.39591C46.0016 7.34823 45.805 7.32439 45.5785 7.32439C45.0063 7.32439 44.5772 7.46743 44.2911 7.75351C44.0051 8.03959 43.862 8.52234 43.862 9.20178V18.7854H40.7151ZM39.106 11.4368V9.0051H46.1864V11.4368H39.106Z" fill="#262729"/>
</svg>
